<?xml version="1.0" encoding="UTF-8" standalone="no"?>
<svg xmlns:rdf="http://www.w3.org/1999/02/22-rdf-syntax-ns#" xmlns="http://www.w3.org/2000/svg" xml:space="preserve" height="195" viewBox="0 0 300 195.00488" width="300" version="1.1" xmlns:cc="http://creativecommons.org/ns#" xmlns:dc="http://purl.org/dc/elements/1.1/"><g transform="matrix(1.25 0 0 -1.25 59.176 156.68)"><g transform="matrix(1.666 0 0 1.666 -48.388 -31.529)"><path d="m104.66 43.271c-8.283 0-13.232-6.872-13.232-13.515 0-6.644 4.949-13.517 13.232-13.517 8.32 0 13.292 6.873 13.292 13.517 0 6.643-4.972 13.515-13.292 13.515zm5.465-13.515c0-3.722-0.71-9.966-5.465-9.966-4.467 0-5.404 5.42-5.404 9.966 0 4.548 0.937 9.969 5.404 9.969 4.755 0 5.465-6.246 5.465-9.969" fill="#063"/><path d="m144.42 42.54h-11.086l3.54-3.539v-10.16c-0.387 0.488-10.872 13.699-10.872 13.699h-8.998s3.472-3.474 3.537-3.539v-18.489c-0.064-0.065-3.537-3.541-3.537-3.541h11.3s-3.474 3.476-3.538 3.541v13.548c0.388-0.471 16.368-19.86 16.368-19.86s0.019 24.708 0.019 24.801c0.065 0.064 3.538 3.539 3.538 3.539h-0.271" fill="#063"/><path d="m67.496 83.041 6.139 11.124c-1.459-1.367-2.193-1.797-3.547-2.726-7.422-5.095-16.557-6.307-25.735-13.857-6.227-5.123-9.101-12.548-9.101-12.548s8.357 9.387 20.995 14.069c5.098 1.889 8.653 2.926 11.249 3.938" fill="#fc3"/><g fill="#063"><path d="m64.223 77.105c-6.652-2.121-14.575-4.14-22.693-9.618-6.323-4.267-9.995-11.547-9.995-11.547s8.915 8.916 21.875 11.959c2.608 0.612 4.797 1.123 6.631 1.549l4.182 7.657"/><path d="m86.429 30.644-6.703 3.604c-1.741 1.011-2.362 2.241-2.362 3.055-0.023 0.387 0.209 0.887 0.609 1.312 0.629 0.67 1.556 1.054 2.546 1.054 0.519 0 1.13-0.162 1.868-0.497 0-0.01 3.461-3.412 3.461-3.412l0.098-0.098 3.77 5.895-6.871 0.981c-0.909 0.17-1.965 0.17-2.665 0.17-6.229 0-9.067-3.708-9.067-7.152 0-2.018 1.214-4.834 4.62-6.686 0.001 0 6.704-3.607 6.704-3.607 0.584-0.425 1.404-1.019 1.404-2.378 0-2.438-2.223-3.324-3.717-3.324-0.87 0-1.644 0.222-2.302 0.658 0 0.003-3.813 3.76-3.813 3.76l-0.11 0.108-3.113-6.064-2.135 2.678c0 0.014-8.6 21.767-8.6 21.767l-0.028 0.072h-4.262l-8.813-21.866c-0.003 0.001-1.242-1.576-2.062-2.619l-2.809 3.219v33.485c8.96 7.101 14.752 8.542 14.738 8.541-3.185-0.288-9.837-0.887-17.615-5.22-5.118-2.85-9.157-6.747-9.157-6.747l-0.009-0.026-0.006 0.007c-1.518-2.851-3.625-7.594-5.687-12.69l-10.261 18.732h-13.451l4.3-4.303v-31.686l-4.3-4.301h14.712l-4.371 4.301v24.583l9.612-17.2c-1.434-4.042-2.562-7.653-3.032-9.974l3.092 3.592s2.51 11.955 12.403 23.688v-25.069l-4.302-4.014h15.294l-0.001-0.002h10.722s-3.305 3.305-3.407 3.406c0.052 0.13 1.297 3.222 1.351 3.354h7.73c0.049-0.14 1.144-3.225 1.189-3.351-0.097-0.098-3.408-3.409-3.408-3.409h12.74c1.787-0.046 6.401-0.165 6.406-0.166 0.915-0.152 1.911-0.226 3.044-0.226 7.278 0 9.859 4.308 9.859 7.997 0 3.691-2.681 5.473-3.833 6.068zm-32.34-3.42c0.113 0.283 2.344 5.855 2.536 6.336 0.186-0.483 2.32-6.056 2.428-6.336h-4.964"/><path d="m66.164 46.941c-2.035-0.517-3.551-0.551-4.655-0.551-3.206 0-6.912 1.62-6.912 6.171 0 4.534 3.189 6.275 7.602 6.275 0.793 0 2.465-0.086 3.637-0.534l-0.258-2.62c-1 0.586-2.172 0.775-2.931 0.775-2.603 0-4.741-1.086-4.741-3.896 0-2.361 1.673-3.792 4.017-3.792 0.431 0 0.845 0.069 1.138 0.207v2.378h-1.879v2.276h4.982v-6.689"/><path d="m72.214 58.629h8.481v-2.275h-5.274v-2.482h4.981v-2.276h-4.981v-2.724h5.465v-2.275h-8.672v12.032"/><path d="m91.556 58.836c3.965 0 6.033-2.361 6.033-6.223 0-3.827-2.103-6.223-6.033-6.223-3.931 0-6.033 2.396-6.033 6.223 0 3.862 2.068 6.223 6.033 6.223zm0-10.067c1.948 0 2.723 1.861 2.723 3.844 0 2.086-0.775 3.844-2.723 3.844-1.949 0-2.724-1.758-2.724-3.844 0-1.983 0.775-3.844 2.724-3.844"/><path d="m102.6 58.629h5.724c2.138 0 3.878-0.965 3.878-3.034 0-1.603-0.758-2.672-2.309-3.034v-0.034c1.034-0.276 1.103-1.19 1.707-2.655l1.171-3.275h-3.344l-0.69 2.172c-0.654 2.068-1.068 2.585-2.258 2.585h-0.672v-4.757h-3.207v12.032zm3.207-4.999h0.844c1.035 0 2.345 0.035 2.345 1.396 0 1.121-1.12 1.328-2.345 1.328h-0.844v-2.724"/><path d="m128.6 46.941c-2.035-0.517-3.552-0.551-4.656-0.551-3.206 0-6.912 1.62-6.912 6.171 0 4.534 3.19 6.275 7.603 6.275 0.793 0 2.465-0.086 3.636-0.534l-0.258-2.62c-0.999 0.586-2.172 0.775-2.931 0.775-2.603 0-4.74-1.086-4.74-3.896 0-2.361 1.672-3.792 4.016-3.792 0.431 0 0.845 0.069 1.138 0.207v2.378h-1.879v2.276h4.983v-6.689"/><path d="m134.29 58.629h8.481v-2.275h-5.275v-2.482h4.983v-2.276h-4.983v-2.724h5.465v-2.275h-8.671v12.032"/><path d="m10.222 3.903c0-2.331-1.513-3.38-3.734-3.38s-3.734 1.049-3.734 3.38v5.284h2.27v-4.906c0-1.122 0.305-2.074 1.464-2.074 1.16 0 1.465 0.952 1.465 2.074v4.906h2.269v-5.284"/><path d="m19.082 9.187h2.892l2.879-5.784h0.024l-0.036 5.784h2.075v-8.518h-2.819l-2.978 5.821h-0.024l0.073-5.821h-2.086v8.518"/><path d="m36.678 9.187h2.27v-8.518h-2.27v8.518z"/><path d="m48.161 9.187h2.416l1.891-6.687h0.025l1.904 6.687h2.33l-2.904-8.518h-2.807l-2.855 8.518"/><path d="m65.184 9.187h6.004v-1.611h-3.735v-1.757h3.527v-1.611h-3.527v-1.928h3.868v-1.611h-6.137v8.518"/><path d="m80.291 9.187h4.051c1.514 0 2.746-0.684 2.746-2.148 0-1.135-0.537-1.891-1.636-2.147v-0.025c0.733-0.195 0.781-0.842 1.208-1.879l0.83-2.319h-2.367l-0.488 1.538c-0.464 1.464-0.757 1.831-1.599 1.831h-0.475v-3.369h-2.27v8.518zm2.27-3.539h0.597c0.733 0 1.659 0.024 1.659 0.989 0 0.793-0.793 0.939-1.659 0.939h-0.597v-1.928"/><path d="m95.739 2.769c0.586-0.318 1.404-0.562 2.343-0.562 0.72 0 1.403 0.147 1.403 0.83 0 1.586-4.026 0.586-4.026 3.685 0 2.05 2.001 2.612 3.709 2.612 0.818 0 1.623-0.123 2.197-0.318l-0.146-1.757c-0.586 0.268-1.245 0.39-1.892 0.39-0.574 0-1.525-0.048-1.525-0.793 0-1.378 4.026-0.451 4.026-3.526 0-2.209-1.854-2.807-3.746-2.807-0.793 0-1.781 0.122-2.538 0.366l0.195 1.88"/><path d="m110.36 9.187h2.27v-8.518h-2.27v8.518z"/><path d="m123.62 7.503h-2.1v1.684h6.468v-1.684h-2.098v-6.834h-2.27v6.834"/><path d="m137.63 3.879-3.149 5.308h2.612l1.672-3.417 1.647 3.417h2.611l-3.124-5.308v-3.21h-2.269v3.21"/></g></g></g></svg>